<?xml version="1.0" encoding="UTF-8" standalone="no"?>
<svg xmlns:dc="http://purl.org/dc/elements/1.1/" xmlns:cc="http://creativecommons.org/ns#" xmlns:rdf="http://www.w3.org/1999/02/22-rdf-syntax-ns#" xmlns:svg="http://www.w3.org/2000/svg" xmlns="http://www.w3.org/2000/svg" xml:space="preserve" height="47.774326" width="47.774281" version="1.1" id="svg2">
  <defs id="defs6"/>
  <g transform="matrix(1.6285205,0,0,-1.6285205,-0.16994602,362.92329)" id="g10">
    <g transform="scale(0.1,0.1)" id="g12">
      <path id="path18" style="fill:#f5c600;fill-opacity:1;fill-rule:evenodd;stroke:none" d="m 147.724,2228.36 c 28.78915,0 55.67992,-8.3807 78.36739,-22.8235 l 0,-23.5609 18.3119,-18.3118 24.74606,0 c 15.81749,-23.3836 25.06819,-51.5456 25.06819,-81.799 0,-80.6852 -65.80745,-146.493 -146.49354,-146.493 -80.685911,0 -146.4943916,65.8078 -146.4943916,146.493 0,80.6877 65.8084806,146.4952 146.4943916,146.4952"/>
      <path id="path20" style="fill:none;stroke:#fff200;stroke-width:0.3720952;stroke-linecap:butt;stroke-linejoin:miter;stroke-miterlimit:2.61310005;stroke-dasharray:none;stroke-opacity:1" d="m 147.724,2228.36 c 28.78915,0 55.67992,-8.3807 78.36739,-22.8235 l 0,-23.5609 18.3119,-18.3118 24.74606,0 c 15.81749,-23.3836 25.06819,-51.5456 25.06819,-81.799 0,-80.6852 -65.80745,-146.493 -146.49354,-146.493 -80.685911,0 -146.4943916,65.8078 -146.4943916,146.493 0,80.6877 65.8084806,146.4952 146.4943916,146.4952 z"/>
      <path id="path56" style="fill:#000000;fill-opacity:1;fill-rule:evenodd;stroke:none" d="m 88.515114,2110.4348 5.927686,0 0,11.8845 c 0,6.634 2.30337,12.2844 6.94043,16.8615 4.60675,4.5754 10.22763,6.8787 16.79994,6.8787 l 5.958,0 c 3.96213,0 5.92769,-1.9657 5.92769,-5.9278 0,-3.9604 -1.96556,-5.957 -5.92769,-5.957 l -5.927,0 c -3.3175,0 -6.11201,-1.168 -8.41555,-3.4711 -2.30337,-2.3032 -3.47013,-5.0974 -3.47013,-8.3843 l 0,-11.8845 17.81268,0 c 3.96213,0 5.92769,-1.9674 5.92769,-5.9278 0,-3.9621 -1.96556,-5.9587 -5.92769,-5.9587 l -17.81268,0 0,-65.3233 c 0,-3.9622 -1.96556,-5.9277 -5.92769,-5.9277 -3.96213,0 -5.958,1.9655 -5.958,5.9277 l 0,65.3233 -5.927686,0 c -3.961436,0 -5.958003,1.9966 -5.958003,5.9587 0,3.9604 1.996567,5.9278 5.958003,5.9278"/>
      <path id="path64" style="fill:#000000;fill-opacity:1;fill-rule:evenodd;stroke:none" d="m 146.2308,2086.0681 c 0,4.2997 1.04392,8.2912 3.1628,11.9466 4.48409,7.8623 11.36441,11.7934 20.60822,11.7934 l 23.74002,0 0,29.6987 c 0,3.9621 1.99828,5.9277 5.95868,5.9277 3.96213,0 5.9277,-1.9656 5.9277,-5.9277 l 0,-106.9085 c 0,-3.9621 -1.96557,-5.9277 -5.9277,-5.9277 l -29.6987,0 c -6.66327,0 -12.28431,2.3033 -16.89243,6.8787 -4.5754,4.6081 -6.87859,10.2275 -6.87859,16.8614 l 0,35.6574 z m 23.77102,11.8537 c -3.31613,0 -6.11201,-1.1664 -8.41521,-3.4695 -2.3032,-2.3033 -3.46944,-5.0991 -3.46944,-8.4152 l 0,-35.5954 c 0,-3.2559 1.16624,-6.05 3.50046,-8.3841 2.33419,-2.3342 5.12836,-3.5023 8.38419,-3.5023 l 23.74002,0 0,59.3665 -23.74002,0"/>
    </g>
  </g>
</svg>
