<?xml version="1.0" encoding="UTF-8" standalone="no"?>
<!-- Created with Inkscape (http://www.inkscape.org/) -->

<svg
   id="svg2"
   version="1.1"
   inkscape:version="1.1.2 (0a00cf5339, 2022-02-04)"
   width="484.241"
   height="238.92255"
   xml:space="preserve"
   sodipodi:docname="flipdot.svg"
   viewBox="0 0 484.241 238.92255"
   xmlns:inkscape="http://www.inkscape.org/namespaces/inkscape"
   xmlns:sodipodi="http://sodipodi.sourceforge.net/DTD/sodipodi-0.dtd"
   xmlns="http://www.w3.org/2000/svg"
   xmlns:svg="http://www.w3.org/2000/svg"
   xmlns:rdf="http://www.w3.org/1999/02/22-rdf-syntax-ns#"
   xmlns:cc="http://creativecommons.org/ns#"
   xmlns:dc="http://purl.org/dc/elements/1.1/"><metadata
     id="metadata8"><rdf:RDF><cc:Work
         rdf:about=""><dc:format>image/svg+xml</dc:format><dc:type
           rdf:resource="http://purl.org/dc/dcmitype/StillImage" /></cc:Work></rdf:RDF></metadata><defs
     id="defs6" /><sodipodi:namedview
     pagecolor="#ffffff"
     bordercolor="#666666"
     borderopacity="1"
     objecttolerance="10"
     gridtolerance="10"
     guidetolerance="10"
     inkscape:pageopacity="0"
     inkscape:pageshadow="2"
     inkscape:window-width="1920"
     inkscape:window-height="1128"
     id="namedview4"
     showgrid="false"
     inkscape:zoom="1.1673999"
     inkscape:cx="163.61146"
     inkscape:cy="150.76239"
     inkscape:window-x="0"
     inkscape:window-y="40"
     inkscape:window-maximized="1"
     inkscape:current-layer="g12"
     inkscape:pagecheckerboard="0"
     scale-x="1"
     fit-margin-top="0"
     fit-margin-left="0"
     fit-margin-right="0"
     fit-margin-bottom="0" /><g
     id="g10"
     inkscape:groupmode="layer"
     inkscape:label="ink_ext_XXXXXX"
     transform="matrix(1.6285205,0,0,-1.6285205,-0.16994603,365.8732)"><g
       id="g12"
       transform="matrix(0.48388381,0,0,0.48388381,-0.40060614,-855.50274)"><path
         d="m 465.12809,2228.36 c 28.78915,0 55.67992,-8.3807 78.36739,-22.8235 v -23.5609 l 18.3119,-18.3118 h 24.74606 c 15.81749,-23.3836 25.06819,-51.5456 25.06819,-81.799 0,-80.6852 -65.80745,-146.493 -146.49354,-146.493 -80.68608,0 -146.49525,65.8078 -146.49525,146.493 0,80.6877 65.80917,146.4952 146.49525,146.4952"
         style="fill:#231f20;fill-opacity:1;fill-rule:evenodd;stroke:none"
         id="path14"
         inkscape:connector-curvature="0" /><path
         d="m 465.12809,2228.36 c 28.78915,0 55.67992,-8.3807 78.36739,-22.8235 v -23.5609 l 18.3119,-18.3118 h 24.74606 c 15.81749,-23.3836 25.06819,-51.5456 25.06819,-81.799 0,-80.6852 -65.80745,-146.493 -146.49354,-146.493 -80.68608,0 -146.49525,65.8078 -146.49525,146.493 0,80.6877 65.80917,146.4952 146.49525,146.4952 z"
         style="fill:#000000;stroke:#f5c600;stroke-width:7.85899;stroke-linecap:butt;stroke-linejoin:miter;stroke-miterlimit:2.6131;stroke-dasharray:none;stroke-opacity:1"
         id="path16"
         inkscape:connector-curvature="0" /><path
         d="m 147.724,2228.36 c 28.78915,0 55.67992,-8.3807 78.36739,-22.8235 v -23.5609 l 18.3119,-18.3118 h 24.74606 c 15.81749,-23.3836 25.06819,-51.5456 25.06819,-81.799 0,-80.6852 -65.80745,-146.493 -146.49354,-146.493 -80.685911,0 -146.4943916,65.8078 -146.4943916,146.493 0,80.6877 65.8084806,146.4952 146.4943916,146.4952"
         style="fill:#f5c600;fill-opacity:1;fill-rule:evenodd;stroke:none"
         id="path18"
         inkscape:connector-curvature="0" /><path
         d="m 147.724,2228.36 c 28.78915,0 55.67992,-8.3807 78.36739,-22.8235 v -23.5609 l 18.3119,-18.3118 h 24.74606 c 15.81749,-23.3836 25.06819,-51.5456 25.06819,-81.799 0,-80.6852 -65.80745,-146.493 -146.49354,-146.493 -80.685911,0 -146.4943916,65.8078 -146.4943916,146.493 0,80.6877 65.8084806,146.4952 146.4943916,146.4952 z"
         style="fill:none;stroke:#fff200;stroke-width:0.372095;stroke-linecap:butt;stroke-linejoin:miter;stroke-miterlimit:2.6131;stroke-dasharray:none;stroke-opacity:1"
         id="path20"
         inkscape:connector-curvature="0" /><path
         d="m 6.3928944,1911.2692 c 0,1.7256 0.8693936,2.582 2.5947611,2.582 1.7260225,0 2.5819615,-0.8564 2.5819615,-2.582 v -12.9346 h 10.35348 c 2.835675,0 5.283752,-0.9899 7.303747,-2.9831 2.019478,-1.9798 3.036193,-4.3741 3.036193,-7.17 v -23.4753 c 0,-1.726 -0.855819,-2.582 -2.581928,-2.582 -1.725246,0 -2.594674,0.856 -2.594674,2.582 v 23.2748 c 0,1.4716 -0.495266,2.689 -1.484591,3.6917 -1.003968,0.9898 -2.220513,1.4851 -3.692184,1.4851 H 11.569617 v -28.4516 c 0,-1.726 -0.855939,-2.582 -2.5819615,-2.582 -1.7253675,0 -2.5947611,0.856 -2.5947611,2.582 v 46.563"
         style="fill:#000000;fill-opacity:1;fill-rule:evenodd;stroke:none"
         id="path22"
         inkscape:connector-curvature="0" /><path
         d="m 52.956009,1862.1242 c -2.902342,0 -5.350419,1.0034 -7.356976,2.9965 -1.993294,2.006 -2.995884,4.4541 -2.995884,7.3571 0,1.8726 0.454266,3.6114 1.377441,5.2035 1.952811,3.4238 4.949212,5.1365 8.975419,5.1365 h 10.340628 v 5.1768 c 0,1.458 -0.495265,2.6881 -1.485107,3.6781 -1.003279,0.9898 -2.220685,1.4851 -3.692356,1.4851 H 47.779233 c -1.725418,0 -2.594846,0.8695 -2.594846,2.5948 0,1.7253 0.869428,2.582 2.594846,2.582 H 58.1333 c 2.888906,0 5.336982,-1.0033 7.34354,-2.9966 1.992604,-2.0066 2.995883,-4.4547 2.995883,-7.3434 v -23.2884 c 0,-1.726 -0.855992,-2.582 -2.581411,-2.582 z m 10.340628,15.5168 H 52.943089 c -1.431189,0 -2.648595,-0.508 -3.651874,-1.5113 -1.016716,-1.0041 -1.511982,-2.2206 -1.511982,-3.6519 0,-1.4178 0.508704,-2.6353 1.525419,-3.652 1.016889,-1.0166 2.234121,-1.5247 3.638437,-1.5247 h 10.353548 v 10.3399"
         style="fill:#000000;fill-opacity:1;fill-rule:evenodd;stroke:none"
         id="path24"
         inkscape:connector-curvature="0" /><path
         d="m 83.989437,1887.981 v -15.5032 c 0,-1.4178 0.508014,-2.6353 1.524901,-3.652 1.016716,-1.0166 2.233949,-1.5247 3.651873,-1.5247 h 7.758702 c 1.71181,0 2.581235,-0.856 2.581235,-2.582 0,-1.7247 -0.869425,-2.5949 -2.581235,-2.5949 h -7.772139 c -2.889594,0 -5.336981,1.0034 -7.343539,2.9965 -1.993293,2.006 -2.996572,4.4541 -2.996572,7.3436 v 15.5303 c 0,2.8887 1.003279,5.3368 2.996572,7.3434 2.006558,1.9933 4.453945,2.9966 7.343539,2.9966 h 7.772139 c 1.71181,0 2.581235,-0.8567 2.581235,-2.582 0,-1.7253 -0.869425,-2.5948 -2.581235,-2.5948 h -7.758702 c -1.444796,0 -2.662031,-0.5088 -3.664792,-1.5121 -1.003968,-1.0025 -1.511982,-2.2199 -1.511982,-3.6647"
         style="fill:#000000;fill-opacity:1;fill-rule:evenodd;stroke:none"
         id="path26"
         inkscape:connector-curvature="0" /><path
         d="m 115.02286,1878.9384 v -14.2322 c 0,-1.726 -0.85581,-2.582 -2.58192,-2.582 -1.72525,0 -2.59467,0.856 -2.59467,2.582 v 46.563 c 0,1.7256 0.86942,2.582 2.59467,2.582 1.72611,0 2.58192,-0.8564 2.58192,-2.582 v -25.8297 l 16.5336,12.3863 c 0.44135,0.3344 0.96298,0.5088 1.56453,0.5088 1.72542,0 2.59485,-0.8567 2.59485,-2.582 0,-0.8963 -0.34729,-1.578 -1.02963,-2.0868 l -10.04588,-7.517 10.78128,-20.2253 c 0.20069,-0.3478 0.29423,-0.7488 0.29423,-1.2173 0,-0.7092 -0.25444,-1.3114 -0.76245,-1.8195 -0.50802,-0.5088 -1.12387,-0.7625 -1.8324,-0.7625 -1.01603,0 -1.77916,0.455 -2.27375,1.3782 l -10.38041,19.4619 -5.44397,-4.0259"
         style="fill:#000000;fill-opacity:1;fill-rule:evenodd;stroke:none"
         id="path28"
         inkscape:connector-curvature="0" /><path
         d="m 158.99056,1893.1578 c -2.13989,0 -3.97228,-0.7631 -5.48426,-2.2745 -1.5113,-1.5107 -2.27375,-3.3437 -2.27375,-5.4836 v -2.5819 h 15.51672 v 2.5819 c 0,2.1399 -0.76245,3.9729 -2.27375,5.4836 -1.51215,1.5114 -3.34437,2.2745 -5.48496,2.2745 z m -7.75801,-15.5168 v -5.1632 c 0,-1.4178 0.50801,-2.6353 1.52473,-3.652 1.01688,-1.0166 2.23412,-1.5247 3.65204,-1.5247 h 12.93462 c 1.72611,0 2.5821,-0.856 2.5821,-2.582 0,-1.7247 -0.85599,-2.5949 -2.5821,-2.5949 h -12.93462 c -2.90302,0 -5.35042,1.0034 -7.35714,2.9965 -1.99312,2.006 -2.9964,4.4541 -2.9964,7.3436 v 12.9354 c 0,3.5847 1.25771,6.6344 3.78589,9.1489 2.51457,2.5283 5.5642,3.786 9.14889,3.786 3.63843,0 6.7022,-1.2444 9.19007,-3.7455 2.50113,-2.4879 3.74541,-5.5516 3.74541,-9.1894 v -7.7587 h -20.69349"
         style="fill:#000000;fill-opacity:1;fill-rule:evenodd;stroke:none"
         id="path30"
         inkscape:connector-curvature="0" /><path
         d="m 182.26684,1895.7526 c 0,1.7253 0.85445,2.582 2.58055,2.582 h 15.5298 c 1.72611,0 2.58228,-0.8567 2.58228,-2.582 v -5.1767 c 0,-1.7256 -0.85617,-2.5813 -2.58228,-2.5813 -1.72438,0 -2.59432,0.8557 -2.59432,2.5813 v 2.5819 h -10.34115 v -28.4516 c 0,-1.726 -0.85617,-2.582 -2.58055,-2.582 -1.7261,0 -2.59433,0.856 -2.59433,2.582 v 31.0464"
         style="fill:#000000;fill-opacity:1;fill-rule:evenodd;stroke:none"
         id="path32"
         inkscape:connector-curvature="0" /><path
         d="m 233.99152,1871.1669 c 0,1.6453 -0.73386,2.8095 -2.20673,3.5173 l -13.26967,6.4082 c -3.47634,1.6715 -5.21623,4.4002 -5.21623,8.186 0,2.983 1.22998,5.2838 3.67961,6.9021 2.12577,1.4043 4.76145,2.1137 7.91735,2.1137 3.83982,0 7.27827,-0.9495 10.29981,-2.8627 0.92335,-0.5752 1.37813,-1.3242 1.37813,-2.2737 0,-0.6958 -0.25323,-1.3115 -0.76314,-1.8196 -0.50819,-0.5081 -1.12317,-0.7623 -1.81913,-0.7623 -0.46684,0 -0.882,0.1068 -1.21621,0.3074 -2.48751,1.4851 -5.1094,2.2341 -7.87946,2.2341 -4.27909,0 -6.42036,-1.2838 -6.42036,-3.839 0,-1.6183 0.70974,-2.7691 2.11371,-3.4513 l 13.40232,-6.4607 c 3.45222,-1.6722 5.17832,-4.4008 5.17832,-8.1868 0,-3.1431 -1.24548,-5.4836 -3.71923,-7.0622 -2.12749,-1.3242 -4.85618,-1.9932 -8.19987,-1.9932 -4.96299,0 -9.13528,0.9502 -12.50654,2.8626 -0.96296,0.5485 -1.44531,1.3242 -1.44531,2.3143 0,0.6957 0.25495,1.3108 0.76313,1.8194 0.5082,0.5081 1.12319,0.7618 1.81914,0.7618 0.34798,0 0.6684,-0.066 0.98881,-0.2005 0.83033,-0.3607 2.06031,-0.8425 3.67961,-1.4441 2.35315,-0.6291 4.64085,-0.9366 6.86136,-0.9366 4.38763,0 6.58058,1.2839 6.58058,3.8658"
         style="fill:#000000;fill-opacity:1;fill-rule:evenodd;stroke:none"
         id="path34"
         inkscape:connector-curvature="0" /><path
         d="m 249.50926,1895.7526 c 0,1.7253 0.85617,2.582 2.58055,2.582 h 12.93549 c 2.90268,0 5.35058,-1.0033 7.35748,-2.9966 1.99312,-2.0066 2.99571,-4.4547 2.99571,-7.3434 v -15.5303 c 0,-2.8626 -1.00259,-5.3107 -2.99571,-7.3165 -2.0069,-2.0202 -4.4548,-3.0236 -7.34371,-3.0236 h -10.3532 v -12.9353 c 0,-1.7248 -0.85616,-2.5807 -2.58228,-2.5807 -1.72438,0 -2.59433,0.8559 -2.59433,2.5807 z m 5.17661,-2.5948 v -25.8567 h 10.33943 c 1.44531,0 2.66323,0.5081 3.66581,1.5113 1.0026,1.0033 1.51078,2.2206 1.51078,3.6654 v 15.5032 c 0,1.4716 -0.49439,2.7017 -1.48494,3.6917 -1.00258,0.9898 -2.2205,1.4851 -3.69165,1.4851 h -10.33943"
         style="fill:#000000;fill-opacity:1;fill-rule:evenodd;stroke:none"
         id="path36"
         inkscape:connector-curvature="0" /><path
         d="m 296.07285,1862.1242 c -2.90442,0 -5.3506,1.0034 -7.3575,2.9965 -1.99313,2.006 -2.99743,4.4541 -2.99743,7.3571 0,1.8726 0.45479,3.6114 1.37813,5.2035 1.95349,3.4238 4.94922,5.1365 8.9768,5.1365 h 10.33942 v 5.1768 c 0,1.458 -0.49613,2.6881 -1.48493,3.6781 -1.00433,0.9898 -2.22051,1.4851 -3.69168,1.4851 h -10.33942 c -1.72611,0 -2.59604,0.8695 -2.59604,2.5948 0,1.7253 0.86993,2.582 2.59604,2.582 h 10.35321 c 2.8889,0 5.33681,-1.0033 7.34371,-2.9966 1.99313,-2.0066 2.99571,-4.4547 2.99571,-7.3434 v -23.2884 c 0,-1.726 -0.85616,-2.582 -2.58227,-2.582 z m 10.33942,15.5168 h -10.3532 c -1.43153,0 -2.64947,-0.508 -3.65205,-1.5113 -1.01637,-1.0041 -1.51078,-2.2206 -1.51078,-3.6519 0,-1.4178 0.50646,-2.6353 1.52456,-3.652 1.01638,-1.0166 2.23429,-1.5247 3.63827,-1.5247 h 10.3532 v 10.3399"
         style="fill:#000000;fill-opacity:1;fill-rule:evenodd;stroke:none"
         id="path38"
         inkscape:connector-curvature="0" /><path
         d="m 327.1049,1887.981 v -15.5032 c 0,-1.4178 0.50819,-2.6353 1.52627,-3.652 1.01466,-1.0166 2.23257,-1.5247 3.65032,-1.5247 h 7.75889 c 1.71232,0 2.58227,-0.856 2.58227,-2.582 0,-1.7247 -0.86995,-2.5949 -2.58227,-2.5949 h -7.77266 c -2.8889,0 -5.33681,1.0034 -7.34371,2.9965 -1.99313,2.006 -2.99572,4.4541 -2.99572,7.3436 v 15.5303 c 0,2.8887 1.00259,5.3368 2.99572,7.3434 2.0069,1.9933 4.45481,2.9966 7.34371,2.9966 h 7.77266 c 1.71232,0 2.58227,-0.8567 2.58227,-2.582 0,-1.7253 -0.86995,-2.5948 -2.58227,-2.5948 h -7.75889 c -1.44359,0 -2.6615,-0.5088 -3.66409,-1.5121 -1.00431,-1.0025 -1.5125,-2.2199 -1.5125,-3.6647"
         style="fill:#000000;fill-opacity:1;fill-rule:evenodd;stroke:none"
         id="path40"
         inkscape:connector-curvature="0" /><path
         d="m 365.89581,1893.1578 c -2.13954,0 -3.97072,-0.7631 -5.48322,-2.2745 -1.51079,-1.5107 -2.27392,-3.3437 -2.27392,-5.4836 v -2.5819 h 15.51602 v 2.5819 c 0,2.1399 -0.76141,3.9729 -2.27392,5.4836 -1.51076,1.5114 -3.34368,2.2745 -5.48496,2.2745 z m -7.75714,-15.5168 v -5.1632 c 0,-1.4178 0.50819,-2.6353 1.52455,-3.652 1.01639,-1.0166 2.2343,-1.5247 3.65205,-1.5247 h 12.93547 c 1.72612,0 2.58056,-0.856 2.58056,-2.582 0,-1.7247 -0.85444,-2.5949 -2.58056,-2.5949 h -12.93547 c -2.90268,0 -5.35059,1.0034 -7.35749,2.9965 -1.99313,2.006 -2.99571,4.4541 -2.99571,7.3436 v 12.9354 c 0,3.5847 1.25755,6.6344 3.78469,9.1489 2.51509,2.5283 5.56592,3.786 9.14905,3.786 3.63999,0 6.70289,-1.2444 9.19042,-3.7455 2.5013,-2.4879 3.74507,-5.5516 3.74507,-9.1894 v -7.7587 h -20.69263"
         style="fill:#000000;fill-opacity:1;fill-rule:evenodd;stroke:none"
         id="path42"
         inkscape:connector-curvature="0" /><path
         d="m 425.38109,1878.9384 v -14.2322 c 0,-1.726 -0.85616,-2.582 -2.58055,-2.582 -1.72611,0 -2.59432,0.856 -2.59432,2.582 v 46.563 c 0,1.7256 0.86821,2.582 2.59432,2.582 1.72439,0 2.58055,-0.8564 2.58055,-2.582 v -25.8297 l 16.53412,12.3863 c 0.44101,0.3344 0.96297,0.5088 1.5659,0.5088 1.72439,0 2.59433,-0.8567 2.59433,-2.582 0,-0.8963 -0.34797,-1.578 -1.03014,-2.0868 l -10.04657,-7.517 10.78214,-20.2253 c 0.19983,-0.3478 0.29457,-0.7488 0.29457,-1.2173 0,-0.7092 -0.25496,-1.3114 -0.76313,-1.8195 -0.50819,-0.5088 -1.12318,-0.7625 -1.8312,-0.7625 -1.01809,0 -1.77951,0.455 -2.27392,1.3782 l -10.38076,19.4619 -5.44534,-4.0259"
         style="fill:#000000;fill-opacity:1;fill-rule:evenodd;stroke:none"
         id="path44"
         inkscape:connector-curvature="0" /><path
         d="m 466.76807,1862.1242 c -2.90268,0 -5.35059,1.0034 -7.35577,2.9965 -1.99484,2.006 -2.99743,4.4541 -2.99743,7.3571 0,1.8726 0.45478,3.6114 1.37813,5.2035 1.95349,3.4238 4.94921,5.1365 8.97507,5.1365 h 10.34115 v 5.1768 c 0,1.458 -0.49614,2.6881 -1.48666,3.6781 -1.00259,0.9898 -2.21878,1.4851 -3.69167,1.4851 h -10.33942 c -1.7261,0 -2.59433,0.8695 -2.59433,2.5948 0,1.7253 0.86823,2.582 2.59433,2.582 h 10.35321 c 2.8889,0 5.33681,-1.0033 7.34371,-2.9966 1.99312,-2.0066 2.99743,-4.4547 2.99743,-7.3434 v -23.2884 c 0,-1.726 -0.85789,-2.582 -2.58227,-2.582 z m 10.34115,15.5168 h -10.35493 c -1.4298,0 -2.64774,-0.508 -3.65032,-1.5113 -1.01809,-1.0041 -1.5125,-2.2206 -1.5125,-3.6519 0,-1.4178 0.50819,-2.6353 1.52455,-3.652 1.0181,-1.0166 2.23431,-1.5247 3.63827,-1.5247 h 10.35493 v 10.3399"
         style="fill:#000000;fill-opacity:1;fill-rule:evenodd;stroke:none"
         id="path46"
         inkscape:connector-curvature="0" /><path
         d="m 513.31787,1871.1669 c 0,1.6453 -0.73558,2.8095 -2.20673,3.5173 l -13.26968,6.4082 c -3.47805,1.6715 -5.21622,4.4002 -5.21622,8.186 0,2.983 1.22998,5.2838 3.67789,6.9021 2.12749,1.4043 4.76145,2.1137 7.91908,2.1137 3.83981,0 7.27654,-0.9495 10.2998,-2.8627 0.92336,-0.5752 1.37813,-1.3242 1.37813,-2.2737 0,-0.6958 -0.25495,-1.3115 -0.76314,-1.8196 -0.50819,-0.5081 -1.12318,-0.7623 -1.81913,-0.7623 -0.46856,0 -0.882,0.1068 -1.21793,0.3074 -2.48751,1.4851 -5.1094,2.2341 -7.87773,2.2341 -4.28082,0 -6.42036,-1.2838 -6.42036,-3.839 0,-1.6183 0.70801,-2.7691 2.1137,-3.4513 l 13.40232,-6.4607 c 3.45222,-1.6722 5.1766,-4.4008 5.1766,-8.1868 0,-3.1431 -1.24376,-5.4836 -3.7175,-7.0622 -2.12749,-1.3242 -4.8562,-1.9932 -8.2016,-1.9932 -4.96128,0 -9.13528,0.9502 -12.50654,2.8626 -0.96296,0.5485 -1.44359,1.3242 -1.44359,2.3143 0,0.6957 0.25323,1.3108 0.76141,1.8194 0.50992,0.5081 1.12491,0.7618 1.81914,0.7618 0.34798,0 0.67012,-0.066 0.99053,-0.2005 0.82861,-0.3607 2.06031,-0.8425 3.67789,-1.4441 2.35488,-0.6291 4.64258,-0.9366 6.86309,-0.9366 4.38762,0 6.58057,1.2839 6.58057,3.8658"
         style="fill:#000000;fill-opacity:1;fill-rule:evenodd;stroke:none"
         id="path48"
         inkscape:connector-curvature="0" /><path
         d="m 549.52824,1871.1669 c 0,1.6453 -0.73558,2.8095 -2.20673,3.5173 l -13.26967,6.4082 c -3.47806,1.6715 -5.21622,4.4002 -5.21622,8.186 0,2.983 1.22999,5.2838 3.67788,6.9021 2.12576,1.4043 4.76144,2.1137 7.91908,2.1137 3.8381,0 7.27653,-0.9495 10.29809,-2.8627 0.92334,-0.5752 1.37812,-1.3242 1.37812,-2.2737 0,-0.6958 -0.25323,-1.3115 -0.76142,-1.8196 -0.50818,-0.5081 -1.12316,-0.7623 -1.81913,-0.7623 -0.46856,0 -0.882,0.1068 -1.21792,0.3074 -2.48752,1.4851 -5.10942,2.2341 -7.87774,2.2341 -4.28081,0 -6.42208,-1.2838 -6.42208,-3.839 0,-1.6183 0.70974,-2.7691 2.11371,-3.4513 l 13.40403,-6.4607 c 3.4505,-1.6722 5.17662,-4.4008 5.17662,-8.1868 0,-3.1431 -1.24551,-5.4836 -3.71752,-7.0622 -2.12749,-1.3242 -4.85618,-1.9932 -8.2016,-1.9932 -4.96127,0 -9.13528,0.9502 -12.50654,2.8626 -0.96296,0.5485 -1.44358,1.3242 -1.44358,2.3143 0,0.6957 0.25323,1.3108 0.76141,1.8194 0.50819,0.5081 1.12318,0.7618 1.81914,0.7618 0.34798,0 0.66839,-0.066 0.99052,-0.2005 0.82861,-0.3607 2.06031,-0.8425 3.67789,-1.4441 2.35488,-0.6291 4.64258,-0.9366 6.86136,-0.9366 4.38763,0 6.5823,1.2839 6.5823,3.8658"
         style="fill:#000000;fill-opacity:1;fill-rule:evenodd;stroke:none"
         id="path50"
         inkscape:connector-curvature="0" /><path
         d="m 577.97975,1893.1578 c -2.14127,0 -3.97246,-0.7631 -5.48496,-2.2745 -1.51078,-1.5107 -2.27392,-3.3437 -2.27392,-5.4836 v -2.5819 h 15.51775 v 2.5819 c 0,2.1399 -0.76314,3.9729 -2.27391,5.4836 -1.5125,1.5114 -3.34542,2.2745 -5.48496,2.2745 z m -7.75888,-15.5168 v -5.1632 c 0,-1.4178 0.50819,-2.6353 1.52455,-3.652 1.01811,-1.0166 2.2343,-1.5247 3.65206,-1.5247 h 12.93546 c 1.72612,0 2.58228,-0.856 2.58228,-2.582 0,-1.7247 -0.85616,-2.5949 -2.58228,-2.5949 h -12.93546 c -2.90269,0 -5.3506,1.0034 -7.35578,2.9965 -1.99311,2.006 -2.99742,4.4541 -2.99742,7.3436 v 12.9354 c 0,3.5847 1.25754,6.6344 3.78468,9.1489 2.51681,2.5283 5.56592,3.786 9.15079,3.786 3.63826,0 6.70115,-1.2444 9.18868,-3.7455 2.50131,-2.4879 3.74679,-5.5516 3.74679,-9.1894 v -7.7587 h -20.69435"
         style="fill:#000000;fill-opacity:1;fill-rule:evenodd;stroke:none"
         id="path52"
         inkscape:connector-curvature="0" /><path
         d="m 601.2667,1911.2692 c 0,1.7256 0.87167,2.582 2.59606,2.582 1.72611,0 2.58227,-0.8564 2.58227,-2.582 v -41.3869 c 0,-1.3371 0.85616,-2.1932 2.58054,-2.5812 1.72612,-0.4017 2.58227,-1.2577 2.58227,-2.5949 0,-1.726 -0.85615,-2.582 -2.58227,-2.582 -2.32731,0 -4.19984,0.6823 -5.61759,2.0607 -1.43154,1.3638 -2.14128,3.2635 -2.14128,5.6974 v 41.3869"
         style="fill:#000000;fill-opacity:1;fill-rule:evenodd;stroke:none"
         id="path54"
         inkscape:connector-curvature="0" /><path
         d="m 49.10758,2111.7169 h 5.927683 v 11.8845 c 0,6.634 2.303372,12.2844 6.940436,16.8615 4.606746,4.5754 10.227623,6.8787 16.799926,6.8787 h 5.958002 c 3.962125,0 5.927684,-1.9657 5.927684,-5.9278 0,-3.9604 -1.965559,-5.957 -5.927684,-5.957 h -5.926994 c -3.317504,0 -6.112007,-1.168 -8.415553,-3.4711 -2.303372,-2.3032 -3.470131,-5.0974 -3.470131,-8.3843 v -11.8845 h 17.812678 c 3.962125,0 5.927684,-1.9674 5.927684,-5.9278 0,-3.9621 -1.965559,-5.9587 -5.927684,-5.9587 H 66.920949 v -65.3233 c 0,-3.9622 -1.965559,-5.9277 -5.927684,-5.9277 -3.962125,0 -5.958002,1.9655 -5.958002,5.9277 v 65.3233 H 49.10758 c -3.961436,0 -5.958003,1.9966 -5.958003,5.9587 0,3.9604 1.996567,5.9278 5.958003,5.9278"
         style="fill:#000000;fill-opacity:1;fill-rule:evenodd;stroke:none"
         id="path56"
         inkscape:connector-curvature="0" /><path
         d="m 114.43216,2141.4138 c 0,3.9621 1.99657,5.9278 5.958,5.9278 3.96145,0 5.92769,-1.9657 5.92769,-5.9278 v -95.0221 c 0,-3.0715 1.96555,-5.0371 5.927,-5.9276 3.96211,-0.9217 5.92768,-2.8873 5.92768,-5.957 0,-3.9622 -1.96557,-5.9277 -5.92768,-5.9277 -5.34354,0 -9.64347,1.5658 -12.89844,4.7287 -3.28649,3.1336 -4.91425,7.4936 -4.91425,13.0836 v 95.0221"
         style="fill:#000000;fill-opacity:1;fill-rule:evenodd;stroke:none"
         id="path58"
         inkscape:connector-curvature="0" /><path
         d="m 161.91306,2105.7891 c 0,3.9604 1.99657,5.9278 5.958,5.9278 3.96213,0 5.92717,-1.9674 5.92717,-5.9278 v -71.282 c 0,-3.9622 -1.96504,-5.9277 -5.92717,-5.9277 -3.96143,0 -5.958,1.9655 -5.958,5.9277 z m 0,29.6677 v 5.957 c 0,3.9621 1.99657,5.9278 5.958,5.9278 3.96213,0 5.92717,-1.9657 5.92717,-5.9278 v -5.957 c 0,-3.9621 -1.96504,-5.9276 -5.92717,-5.9276 -3.96143,0 -5.958,1.9655 -5.958,5.9276"
         style="fill:#000000;fill-opacity:1;fill-rule:evenodd;stroke:none"
         id="path60"
         inkscape:connector-curvature="0" /><path
         d="m 197.53825,2105.7891 c 0,3.9604 1.96727,5.9278 5.92768,5.9278 h 29.69871 c 6.66498,0 12.2843,-2.3033 16.8907,-6.8804 4.57712,-4.6065 6.88032,-10.2274 6.88032,-16.8598 v -35.6573 c 0,-6.572 -2.3032,-12.1931 -6.88032,-16.7993 -4.6064,-4.6375 -10.22572,-6.9407 -16.8597,-6.9407 h -23.77101 v -29.6985 c 0,-3.9622 -1.96557,-5.9278 -5.9277,-5.9278 -3.96211,0 -5.95868,1.9656 -5.95868,5.9278 z m 11.88638,-5.9587 v -59.3663 h 23.74001 c 3.31613,0 6.11201,1.1679 8.41521,3.4711 2.30319,2.3032 3.47117,5.0973 3.47117,8.4152 v 35.5953 c 0,3.3782 -1.13696,6.2035 -3.40916,8.4756 -2.3032,2.2739 -5.09908,3.4091 -8.47722,3.4091 h -23.74001"
         style="fill:#000000;fill-opacity:1;fill-rule:evenodd;stroke:none"
         id="path62"
         inkscape:connector-curvature="0" /><path
         d="m 364.72614,2086.0681 c 0,4.2997 1.04392,8.2912 3.1628,11.9466 4.48409,7.8623 11.36441,11.7934 20.60822,11.7934 h 23.74002 v 29.6987 c 0,3.9621 1.99828,5.9277 5.95868,5.9277 3.96213,0 5.9277,-1.9656 5.9277,-5.9277 v -106.9085 c 0,-3.9621 -1.96557,-5.9277 -5.9277,-5.9277 h -29.6987 c -6.66327,0 -12.28431,2.3033 -16.89243,6.8787 -4.5754,4.6081 -6.87859,10.2275 -6.87859,16.8614 z m 23.77102,11.8537 c -3.31613,0 -6.11201,-1.1664 -8.41521,-3.4695 -2.3032,-2.3033 -3.46944,-5.0991 -3.46944,-8.4152 v -35.5954 c 0,-3.2559 1.16624,-6.05 3.50046,-8.3841 2.33419,-2.3342 5.12836,-3.5023 8.38419,-3.5023 h 23.74002 v 59.3665 h -23.74002"
         style="fill:#f5c600;fill-opacity:1;fill-rule:evenodd;stroke:none"
         id="path64"
         inkscape:connector-curvature="0" /><path
         d="m 447.86357,2056.3694 v 23.7399 c 0,8.2311 2.88719,15.2336 8.69256,21.008 5.77264,5.8037 12.77526,8.6908 21.00615,8.6908 8.35319,0 15.38682,-2.8562 21.09917,-8.5994 5.74336,-5.7125 8.59954,-12.7462 8.59954,-21.0994 v -23.7399 c 0,-8.231 -2.88719,-15.2335 -8.69257,-21.0079 -5.77263,-5.8036 -12.77526,-8.6909 -21.00614,-8.6909 -8.23089,0 -15.23351,2.8873 -21.00615,8.6909 -5.80537,5.7744 -8.69256,12.7769 -8.69256,21.0079 z m 47.51277,0 v 23.7399 c 0,4.9148 -1.75195,9.1216 -5.2214,12.5927 -3.47116,3.4695 -7.6779,5.2198 -12.59266,5.2198 -4.91304,0 -9.1215,-1.7503 -12.59094,-5.2198 -3.47117,-3.4711 -5.22139,-7.6779 -5.22139,-12.5927 v -23.7399 c 0,-4.9751 1.71921,-9.1836 5.15937,-12.6529 3.46944,-3.4403 7.6779,-5.1612 12.65296,-5.1612 4.91476,0 9.1215,1.7503 12.59266,5.2215 3.46945,3.4711 5.2214,7.6779 5.2214,12.5926"
         style="fill:#f5c600;fill-opacity:1;fill-rule:evenodd;stroke:none"
         id="path66"
         inkscape:connector-curvature="0" /><path
         d="m 542.88738,2097.9218 h -5.92769 c -3.96211,0 -5.95868,1.9965 -5.95868,5.9586 0,3.9622 1.99657,5.9277 5.95868,5.9277 h 5.92769 v 29.6987 c 0,3.9621 1.99657,5.9277 5.95868,5.9277 3.96041,0 5.92597,-1.9656 5.92597,-5.9277 v -29.6987 h 17.81405 c 3.96041,0 5.92597,-1.9655 5.92597,-5.9277 0,-3.9621 -1.96556,-5.9586 -5.92597,-5.9586 h -17.81405 v -65.3235 c 0,-3.9621 -1.96556,-5.9277 -5.92597,-5.9277 -3.96211,0 -5.95868,1.9656 -5.95868,5.9277 v 65.3235"
         style="fill:#f5c600;fill-opacity:1;fill-rule:evenodd;stroke:none"
         id="path68"
         inkscape:connector-curvature="0" /></g></g></svg>
