<?xml version="1.0" encoding="UTF-8" standalone="no"?>
<svg
   id="a"
   viewBox="0 0 3785 3230.84"
   version="1.1"
   xmlns="http://www.w3.org/2000/svg"
   xmlns:svg="http://www.w3.org/2000/svg">
  <defs
     id="defs15" />
  <path
     d="M1669.92,909.73h-715.39c-87.34,0-158.68,71.34-158.68,158.68v704.76c0,87.25,71.51,158.72,158.68,158.72h497.16s27.46-104.89,27.46-104.89h-513.25c-35.86,0-65.21-29.35-65.21-65.21v-682c0-35.73,29.48-65.21,65.21-65.21h638.63c21.75-35.19,43.54-70.17,65.38-104.85Z"
     fill="#fc0"
     stroke="#000"
     stroke-miterlimit="22.93"
     stroke-width=".22"
     id="path6" />
  <path
     d="M2739.96,1773.18v-101.28h155.99c13.81,0,26.24-5.67,35.19-14.61,9.33-9.34,14.6-22.02,14.61-35.23v-402.56c0-13.69-5.71-26.24-14.65-35.19-8.94-8.94-21.46-14.65-35.15-14.65h-155.99s0-101.24,0-101.24c0-87.3-71.51-158.68-158.72-158.68h-500.27l-19.11,104.85h508c35.82,0,65.21,29.31,65.21,65.21v682c0,35.78-29.44,65.21-65.21,65.21h-648.37s-65.34,104.89-65.34,104.89h725.09c87.38,0,158.72-71.3,158.72-158.72Z"
     fill="#fc0"
     stroke="#000"
     stroke-miterlimit="22.93"
     stroke-width=".22"
     id="path10" />
</svg>
