<?xml version="1.0" encoding="UTF-8" standalone="no"?>
<svg
   id="a"
   viewBox="0 0 3785 3230.84"
   version="1.1"
   xmlns="http://www.w3.org/2000/svg"
   xmlns:svg="http://www.w3.org/2000/svg">
  <defs
     id="defs15" />
  <path
     d="M894.07,2305.69l35.42,70.84c.79,1.63,1.21,3.15,1.21,4.62,0,2.63-1.05,4.99-3.1,7.04s-4.41,3.1-7.04,3.1c-4.31,0-7.41-1.89-9.25-5.68l-37.84-75.62h-44.35v71.15c0,6.78-3.36,10.14-10.14,10.14s-10.19-3.36-10.19-10.14v-182.93c0-6.78,3.36-10.14,10.14-10.14h50.82c16.92,0,31.32,5.94,43.2,17.76,11.82,11.88,17.76,26.28,17.76,43.2,0,28.01-12.19,46.93-36.63,56.65h0ZM829.11,2208.41v81.24h40.62c11.4,0,21.02-3.94,28.85-11.77,7.83-7.83,11.77-17.45,11.77-28.85s-3.94-21.02-11.77-28.85-17.45-11.77-28.85-11.77h-40.62ZM971.32,2381.15v-182.93c0-6.78,3.36-10.14,10.14-10.14h81.35c6.78,0,10.14,3.36,10.14,10.14s-3.36,10.19-10.14,10.19h-71.15v60.96h50.82c6.78,0,10.14,3.36,10.14,10.14s-3.36,10.19-10.14,10.19h-50.82v81.24h71.15c6.78,0,10.14,3.36,10.14,10.14s-3.36,10.19-10.14,10.19h-81.35c-6.78,0-10.14-3.36-10.14-10.14h0ZM1205.01,2188.08c6.78,0,10.19,3.36,10.19,10.14s-3.42,10.19-10.19,10.19h-40.62c-8.51,0-15.71,3-21.65,8.93-5.89,5.94-8.83,13.14-8.83,21.55v101.58c0,8.41,3,15.61,8.93,21.55s13.14,8.93,21.55,8.93h40.62c6.78,0,10.19,3.36,10.19,10.14s-3.42,10.19-10.19,10.19h-40.62c-14.08,0-26.07-4.94-35.94-14.87-9.93-9.88-14.87-21.86-14.87-35.94v-101.58c0-14.08,4.94-26.07,14.87-35.94,9.88-9.93,21.86-14.87,35.94-14.87h40.62ZM1255.88,2381.15v-182.93c0-6.78,3.42-10.14,10.19-10.14s10.14,3.36,10.14,10.14v71.15h81.24v-71.15c0-6.78,3.42-10.14,10.2-10.14s10.14,3.36,10.14,10.14v182.93c0,6.78-3.36,10.14-10.14,10.14s-10.2-3.36-10.2-10.14v-91.44h-81.24v91.44c0,6.78-3.36,10.14-10.14,10.14s-10.19-3.36-10.19-10.14h0ZM1489.53,2230.49l-29.85,89.65h59.75l-29.9-89.65h0ZM1560.68,2381.15c0,6.78-3.36,10.14-10.14,10.14-4.94,0-8.15-2.31-9.72-6.94l-14.61-43.88h-73.31l-14.61,43.88c-1.52,4.62-4.78,6.94-9.72,6.94-6.78,0-10.14-3.36-10.14-10.14,0-1.26.16-2.31.47-3.26l60.49-181.67c1.84-5.41,5.26-8.15,10.14-8.15s8.3,2.63,10.04,7.83l60.64,181.98c.32.95.47,2,.47,3.26h0ZM1686.64,2305.69l35.42,70.84c.79,1.63,1.21,3.15,1.21,4.62,0,2.63-1.05,4.99-3.1,7.04s-4.41,3.1-7.04,3.1c-4.31,0-7.41-1.89-9.25-5.68l-37.84-75.62h-44.35v71.15c0,6.78-3.36,10.14-10.14,10.14s-10.19-3.36-10.19-10.14v-182.93c0-6.78,3.36-10.14,10.14-10.14h50.82c16.92,0,31.32,5.94,43.2,17.76,11.82,11.88,17.76,26.28,17.76,43.2,0,28.01-12.19,46.93-36.63,56.65h0ZM1621.69,2208.41v81.24h40.62c11.4,0,21.02-3.94,28.85-11.77,7.83-7.83,11.77-17.45,11.77-28.85s-3.94-21.02-11.77-28.85-17.45-11.77-28.85-11.77h-40.62ZM1814.77,2370.96h50.76v-81.24h-20.34c-6.78,0-10.14-3.42-10.14-10.19s3.36-10.14,10.14-10.14h30.53c6.78,0,10.14,3.36,10.14,10.14v101.63c0,6.78-3.36,10.14-10.14,10.14h-60.96c-14.08,0-26.07-4.94-35.94-14.87-9.93-9.88-14.87-21.86-14.87-35.94v-101.58c0-14.08,4.94-26.07,14.87-35.94,9.88-9.93,21.86-14.87,35.94-14.87h60.96c6.78,0,10.14,3.36,10.14,10.14s-3.36,10.19-10.14,10.19h-60.96c-8.51,0-15.71,3-21.65,8.93-5.89,5.94-8.83,13.14-8.83,21.55v101.58c0,8.51,2.94,15.71,8.83,21.65,5.94,5.89,13.14,8.83,21.65,8.83h0ZM1926.49,2381.15v-182.93c0-6.78,3.36-10.14,10.14-10.14h81.35c6.78,0,10.14,3.36,10.14,10.14s-3.36,10.19-10.14,10.19h-71.15v60.96h50.82c6.78,0,10.14,3.36,10.14,10.14s-3.36,10.19-10.14,10.19h-50.82v81.24h71.15c6.78,0,10.14,3.36,10.14,10.14s-3.36,10.19-10.14,10.19h-81.35c-6.78,0-10.14-3.36-10.14-10.14h0ZM2200.86,2249.04h10.14v-20.34c0-11.35,3.94-21.02,11.88-28.85,7.88-7.83,17.5-11.77,28.75-11.77h10.2c6.78,0,10.14,3.36,10.14,10.14s-3.36,10.19-10.14,10.19h-10.14c-5.68,0-10.46,2-14.4,5.94s-5.94,8.72-5.94,14.35v20.34h30.48c6.78,0,10.14,3.36,10.14,10.14s-3.36,10.2-10.14,10.2h-30.48v111.78c0,6.78-3.36,10.14-10.14,10.14s-10.19-3.36-10.19-10.14v-111.78h-10.14c-6.78,0-10.2-3.42-10.2-10.2s3.42-10.14,10.2-10.14h0ZM2312.64,2198.22c0-6.78,3.42-10.14,10.19-10.14s10.14,3.36,10.14,10.14v162.59c0,5.26,3.36,8.62,10.14,10.14,6.78,1.58,10.14,4.94,10.14,10.2,0,6.78-3.36,10.14-10.14,10.14-9.14,0-16.5-2.68-22.07-8.09-5.62-5.36-8.41-12.82-8.41-22.39v-162.59h0ZM2393.88,2259.18c0-6.78,3.42-10.14,10.2-10.14s10.14,3.36,10.14,10.14v121.97c0,6.78-3.36,10.14-10.14,10.14s-10.2-3.36-10.2-10.14v-121.97h0ZM2393.88,2208.41v-10.19c0-6.78,3.42-10.14,10.2-10.14s10.14,3.36,10.14,10.14v10.19c0,6.78-3.36,10.14-10.14,10.14s-10.2-3.36-10.2-10.14h0ZM2454.84,2259.18c0-6.78,3.36-10.14,10.14-10.14h50.82c11.4,0,21.02,3.94,28.9,11.77,7.83,7.88,11.77,17.5,11.77,28.85v61.01c0,11.25-3.94,20.86-11.77,28.75-7.88,7.94-17.5,11.88-28.85,11.88h-40.67v50.82c0,6.78-3.36,10.14-10.14,10.14s-10.2-3.36-10.2-10.14v-182.93h0ZM2475.18,2269.37v101.58h40.62c5.68,0,10.46-2,14.4-5.94,3.94-3.94,5.94-8.72,5.94-14.4v-60.91c0-5.78-1.94-10.62-5.83-14.5-3.94-3.89-8.72-5.83-14.5-5.83h-40.62ZM2597.09,2289.66c0-7.36,1.79-14.19,5.41-20.44,7.67-13.45,19.44-20.18,35.26-20.18h40.62v-50.82c0-6.78,3.42-10.14,10.19-10.14s10.14,3.36,10.14,10.14v182.93c0,6.78-3.36,10.14-10.14,10.14h-50.82c-11.4,0-21.02-3.94-28.9-11.77-7.83-7.88-11.77-17.5-11.77-28.85v-61.01h0ZM2637.77,2269.37c-5.68,0-10.46,2-14.4,5.94-3.94,3.94-5.94,8.72-5.94,14.4v60.91c0,5.57,2,10.35,5.99,14.35,3.99,3.99,8.78,5.99,14.35,5.99h40.62v-101.58h-40.62ZM2739.35,2340.48v-40.62c0-14.08,4.94-26.07,14.87-35.94,9.88-9.93,21.86-14.87,35.94-14.87s26.33,4.89,36.1,14.71c9.83,9.77,14.71,21.81,14.71,36.1v40.62c0,14.08-4.94,26.07-14.87,35.94-9.88,9.93-21.86,14.87-35.94,14.87s-26.07-4.94-35.94-14.87c-9.93-9.88-14.87-21.86-14.87-35.94h0ZM2820.65,2340.48v-40.62c0-8.41-3-15.61-8.93-21.55s-13.14-8.93-21.55-8.93-15.61,3-21.55,8.93-8.93,13.14-8.93,21.55v40.62c0,8.51,2.94,15.71,8.83,21.65,5.94,5.89,13.14,8.83,21.65,8.83s15.61-3,21.55-8.93,8.93-13.14,8.93-21.55h0ZM2901.94,2269.37h-10.14c-6.78,0-10.2-3.42-10.2-10.2s3.42-10.14,10.2-10.14h10.14v-50.82c0-6.78,3.42-10.14,10.19-10.14s10.14,3.36,10.14,10.14v50.82h30.48c6.78,0,10.14,3.36,10.14,10.14s-3.36,10.2-10.14,10.2h-30.48v111.78c0,6.78-3.36,10.14-10.14,10.14s-10.19-3.36-10.19-10.14v-111.78Z"
     fill="#fc0"
     stroke="#000"
     stroke-miterlimit="22.93"
     stroke-width=".22"
     id="path4" />
</svg>
